Coordinates
version=1
nRows=6
nColumns=36
inDegrees=yes

Units are S.I. units (second, meters, Newtons, ...)
If the header above contains a line with 'inDegrees', this indicates whether rotational values are in degrees (yes) or radians (no).

endheader
time	pelvis_tilt	pelvis_list	pelvis_rotation	pelvis_tx	pelvis_ty	pelvis_tz	hip_flexion_r	hip_adduction_r	hip_rotation_r	knee_angle_r	knee_angle_r_beta	ankle_angle_r	subtalar_angle_r	mtp_angle_r	hip_flexion_l	hip_adduction_l	hip_rotation_l	knee_angle_l	knee_angle_l_beta	ankle_angle_l	subtalar_angle_l	mtp_angle_l	lumbar_extension	lumbar_bending	lumbar_rotation	arm_flex_r	arm_add_r	arm_rot_r	elbow_flex_r	pro_sup_r	arm_flex_l	arm_add_l	arm_rot_l	elbow_flex_l	pro_sup_l
      6.41666670	     10.52794194	     -4.06286494	      7.22508213	     -0.15339948	      0.92407012	     -0.09885062	     32.98202645	     -2.83355450	     -4.08329868	     13.64875195	      0.23821566	    -14.74740170	     -5.25368065	     -7.49999987	     -2.79819345	      0.90135599	     -5.60440090	     14.56566637	      0.25421884	      7.31661716	     -0.25117385	     -7.49999987	    -22.47920926	      0.92471296	     -4.91438379	     31.57813723	      6.23644382	     72.97419551	    122.09496805	     89.67340289	     43.07877012	      2.32878743	     69.91546453	    137.39095968	     72.49515171
      6.43333330	     10.60377302	     -4.09846197	      7.12314777	     -0.15372132	      0.92388016	     -0.09848866	     32.90728173	     -2.72813453	     -4.26485092	     13.44467965	      0.23465393	    -14.80332749	     -5.12449612	     -7.49999987	     -2.82045783	      0.82090467	     -5.87213978	     14.72839350	      0.25705896	      6.68995834	     -0.60136924	     -7.49999987	    -22.53632632	      0.93686136	     -4.93678134	     31.55413169	      6.21603611	     72.90246118	    121.91080968	     89.03906759	     43.05273674	      2.23818505	     69.92002050	    137.47808552	     72.00909367
      6.45000000	     10.58424786	     -4.15962180	      7.07965711	     -0.15366077	      0.92261782	     -0.09785531	     33.01535217	     -2.61741702	     -4.38242985	     13.25041189	      0.23126331	    -14.73416732	     -4.96243966	     -7.49999987	     -2.79082989	      0.71972251	     -6.12789821	     14.90309691	      0.26010811	      6.76411446	     -0.69892479	     -7.49999987	    -22.46881304	      0.93413640	     -4.77987591	     31.31327599	      6.11731204	     72.32503266	    121.94294269	     92.31440533	     43.23365201	      2.42257661	     69.98178451	    137.35383967	     74.13495145
      6.46666670	     10.44910141	     -4.18892888	      7.03542698	     -0.15293597	      0.92230816	     -0.09742775	     33.25194339	     -2.57073418	     -4.59372522	     13.19845281	      0.23035646	    -14.70867912	     -4.97415527	     -7.49999987	     -2.80552335	      0.72047608	     -5.98629260	     14.87363529	      0.25959391	      6.77550630	     -0.96042650	     -7.49999987	    -22.27097820	      0.92050494	     -5.00314679	     31.39213974	      6.26935693	     72.60024242	    121.86537575	     91.13608333	     43.25083059	      2.33773586	     69.98922742	    137.42750341	     73.39649185
      6.48333330	     10.51336687	     -4.35081443	      6.97454244	     -0.15279280	      0.92236403	     -0.09716391	     33.34784747	     -2.31016578	     -4.54367392	     13.35730456	      0.23312894	    -14.84354952	     -5.40674685	     -7.49999987	     -2.78085143	      0.48890546	     -6.19540811	     15.05266991	      0.26271865	      6.48471586	     -1.27009239	     -7.49999987	    -22.36046854	      1.05386846	     -5.09215235	     31.58862483	      6.43636121	     72.97479592	    121.76855189	     89.03086700	     43.38399314	      2.33222893	     70.02893084	    137.43952079	     72.63310927
      6.50000000	     10.41594632	     -4.60935685	      6.94149834	     -0.15115937	      0.92269861	     -0.09664861	     33.34449546	     -2.01095514	     -4.78391872	     13.10879659	      0.22879166	    -15.06160812	     -5.34674479	     -7.49999987	     -2.92490983	      0.21437847	     -6.16393737	     14.72932638	      0.25707524	      6.60306351	     -0.44651086	     -7.49999987	    -21.93538820	      1.31894827	     -5.37957778	     31.42789380	      6.55462515	     72.78902704	    121.60350410	     92.19170169	     43.17253797	      2.18194427	     69.62779634	    137.44458623	     74.35688900
